<?xml version="1.0" standalone="no"?>
<!DOCTYPE svg PUBLIC "-//W3C//DTD SVG 20010904//EN"
 "http://www.w3.org/TR/2001/REC-SVG-20010904/DTD/svg10.dtd">
<svg version="1.0" xmlns="http://www.w3.org/2000/svg"
 width="625.000000pt" height="625.000000pt" viewBox="0 0 625.000000 625.000000"
 preserveAspectRatio="xMidYMid meet">

<g transform="translate(0.000000,625.000000) scale(0.100000,-0.100000)"
fill="#000000" stroke="none">
<path d="M2769 5105 c-1 -11 -2 -30 -2 -43 -1 -16 -5 -21 -18 -17 -10 4 -32
-1 -50 -10 -17 -9 -39 -15 -49 -12 -13 3 -16 -1 -12 -19 4 -20 -2 -25 -49 -39
-30 -9 -75 -19 -101 -22 -27 -3 -48 -8 -48 -10 0 -2 7 -20 15 -40 17 -41 18
-46 6 -39 -4 3 -11 -24 -14 -60 -7 -68 -15 -82 -73 -120 -19 -13 -20 -19 -12
-77 5 -35 17 -74 28 -89 11 -15 25 -39 30 -53 12 -31 28 -32 36 -2 4 12 26 39
50 61 l44 39 0 -27 c0 -14 3 -26 8 -26 4 0 36 25 72 56 62 52 100 80 100 71 0
-3 -7 -24 -15 -47 -22 -63 -19 -68 23 -28 47 45 150 102 225 123 98 28 290 21
329 -12 9 -8 21 -12 26 -9 6 3 17 3 25 0 12 -4 15 -21 15 -68 0 -35 6 -74 13
-87 8 -13 19 -40 25 -59 9 -25 12 -29 13 -14 1 12 8 28 17 35 40 33 48 141 14
189 -23 33 -25 67 -5 94 19 25 19 60 0 76 -8 7 -15 21 -15 30 0 26 -45 58 -97
72 -25 6 -79 35 -122 64 -43 29 -97 58 -122 64 -24 7 -49 16 -55 21 -6 5 -18
7 -26 4 -9 -4 -22 1 -31 10 -9 8 -18 11 -21 6 -3 -5 -30 -12 -59 -16 -28 -4
-62 -11 -75 -16 -15 -6 -21 -5 -17 1 3 5 -1 22 -9 37 -13 24 -15 25 -17 8z
m41 -195 c-6 -11 -13 -20 -16 -20 -2 0 0 9 6 20 6 11 13 20 16 20 2 0 0 -9 -6
-20z"/>
<path d="M2605 4463 c-26 -7 -45 -23 -44 -37 0 -7 2 -6 6 2 2 6 9 12 14 12 11
0 0 -32 -15 -45 -7 -5 -20 -30 -29 -54 -16 -40 -16 -45 -2 -68 9 -13 22 -26
28 -27 7 -2 31 -9 53 -16 56 -17 78 -8 36 14 -33 17 -33 18 -16 37 24 26 30
24 38 -13 4 -23 9 -29 17 -21 7 7 22 8 41 2 35 -10 48 -5 48 19 1 16 2 16 13
1 15 -20 49 -31 70 -23 20 7 46 83 40 115 -6 35 -54 88 -83 94 -39 8 -193 14
-215 8z m115 -173 c0 -5 -9 -10 -21 -10 -11 0 -17 5 -14 10 3 6 13 10 21 10 8
0 14 -4 14 -10z"/>
<path d="M3087 4431 c-17 -12 -19 -12 -12 0 8 12 6 12 -8 0 -9 -7 -17 -10 -17
-5 0 5 -4 2 -9 -6 -14 -21 -2 -33 17 -18 9 7 13 8 9 2 -4 -8 21 -12 82 -13 74
-1 90 2 104 17 12 13 13 19 5 21 -103 15 -151 15 -171 2z"/>
<path d="M3080 4371 c-14 -4 -31 -18 -39 -31 -11 -22 -11 -30 3 -64 16 -38 17
-39 36 -21 19 18 20 17 20 -5 0 -15 5 -20 14 -17 7 3 30 2 50 -3 34 -7 36 -6
44 22 l8 30 30 -31 c26 -27 33 -29 43 -18 16 20 6 37 -42 73 -78 57 -126 76
-167 65z m70 -101 c0 -5 -9 -10 -21 -10 -11 0 -17 5 -14 10 3 6 13 10 21 10 8
0 14 -4 14 -10z"/>
<path d="M2346 4294 c-10 -26 -7 -152 4 -159 6 -4 10 5 10 19 0 27 18 34 37
15 7 -7 12 -2 15 21 3 17 1 33 -4 36 -5 3 -6 9 -3 14 6 10 -34 70 -46 70 -4 0
-10 -7 -13 -16z"/>
<path d="M3435 4230 c-3 -6 1 -7 9 -4 18 7 21 14 7 14 -6 0 -13 -4 -16 -10z"/>
<path d="M2355 4090 c9 -59 43 -117 75 -128 28 -10 28 -10 20 18 -5 16 -5 31
-2 35 4 4 -5 4 -20 0 -22 -6 -29 -3 -34 11 -3 11 -15 37 -26 59 l-19 40 6 -35z"/>
<path d="M2821 4006 l-25 -14 30 -27 c28 -26 32 -27 111 -21 86 6 113 13 113
27 0 5 -12 11 -27 15 -16 3 -47 12 -71 20 -53 17 -100 17 -131 0z"/>
<path d="M2495 3940 c-3 -5 -8 -31 -12 -57 -6 -57 18 -117 71 -180 28 -32 36
-52 46 -118 7 -44 17 -86 23 -92 5 -7 7 -13 3 -13 -4 0 8 -16 26 -35 40 -45
125 -87 251 -123 108 -33 109 -32 82 43 -27 73 -11 115 41 115 34 0 67 23 149
103 l70 68 -50 -28 c-27 -15 -54 -31 -60 -35 -57 -46 -90 -68 -100 -68 -7 0
-41 9 -76 19 -35 11 -80 22 -99 26 -48 10 -70 32 -70 70 0 30 3 32 51 43 28 7
63 12 79 12 44 0 80 17 80 39 0 22 -25 31 -88 31 -42 0 -102 20 -130 42 -24
20 13 26 148 21 85 -2 141 1 175 10 l50 13 -110 8 c-60 4 -153 12 -205 17 -52
6 -123 11 -158 13 -55 3 -66 7 -94 34 -30 32 -80 43 -93 22z m225 -120 c0 -5
-4 -10 -10 -10 -5 0 -10 5 -10 10 0 6 5 10 10 10 6 0 10 -4 10 -10z"/>
<path d="M3351 3280 c30 -63 61 -101 75 -96 9 3 58 -23 119 -64 57 -39 109
-70 114 -70 29 0 61 25 61 47 0 28 -16 29 -64 6 -35 -16 -36 -16 -78 13 -24
16 -45 31 -48 34 -22 23 -91 70 -103 70 -14 0 -40 23 -73 65 -14 19 -14 19 -3
-5z"/>
<path d="M3170 3245 c-15 -9 -19 -15 -10 -15 27 -1 58 -36 71 -79 7 -23 15
-37 18 -32 3 5 21 -5 39 -23 32 -32 112 -83 112 -72 0 3 -18 25 -40 47 -22 23
-52 68 -67 101 -17 39 -36 64 -54 74 -34 17 -37 17 -69 -1z"/>
<path d="M3019 3183 c-6 -16 -14 -50 -19 -77 -7 -49 -7 -49 39 -92 25 -24 53
-44 61 -44 9 0 38 -42 68 -98 53 -96 106 -248 172 -492 15 -58 31 -113 35
-122 4 -11 3 -18 -3 -18 -6 0 -14 9 -17 20 -4 11 -11 18 -16 15 -5 -4 -9 2 -9
12 0 15 -2 16 -10 3 -9 -13 -10 -13 -11 0 -1 8 -1 18 0 23 0 4 -4 8 -9 8 -6 1
-14 3 -20 4 -5 1 -13 3 -17 4 -5 1 -1 6 7 11 13 8 12 10 -3 10 -10 0 -15 5
-12 10 3 6 -2 13 -11 17 -27 10 -54 35 -48 45 3 4 -2 8 -11 8 -9 0 -29 14 -45
30 -33 34 -42 61 -12 39 14 -11 13 -10 -2 9 -20 23 -32 30 -21 12 3 -5 2 -10
-3 -10 -10 0 -42 60 -42 80 0 6 -4 8 -10 5 -9 -6 -14 8 -11 28 1 5 -3 6 -8 2
-10 -6 -37 33 -33 48 1 4 -6 7 -15 7 -14 0 -15 2 -4 9 10 7 9 11 -8 23 -11 8
-18 17 -15 20 3 3 -7 15 -22 27 -15 11 -23 21 -19 21 4 0 -12 22 -34 49 -46
55 -50 65 -21 56 31 -10 24 1 -17 27 -21 12 -56 38 -77 58 -49 43 -45 31 34
-101 35 -57 63 -110 63 -116 0 -7 4 -13 9 -13 11 0 68 -119 68 -141 0 -9 7
-22 15 -29 8 -7 15 -20 15 -29 0 -9 7 -27 16 -39 8 -12 12 -22 9 -22 -6 0 11
-37 66 -142 10 -20 19 -45 19 -55 0 -10 7 -27 15 -37 17 -23 20 -46 4 -46 -5
0 -8 4 -5 8 3 5 -1 9 -9 9 -10 0 -12 -4 -5 -12 5 -6 5 -16 -1 -25 -7 -12 -10
-11 -15 8 -7 24 -19 28 -30 10 -4 -7 -3 -8 4 -4 7 4 12 5 12 2 0 -2 3 -13 7
-23 6 -15 4 -16 -8 -6 -12 10 -15 8 -15 -8 0 -14 5 -17 19 -13 14 5 18 2 15
-13 -2 -10 -8 -18 -15 -18 -6 0 -15 -3 -19 -8 -4 -4 2 -7 13 -7 12 0 23 -5 25
-12 3 -7 11 -9 24 -4 24 10 353 12 374 3 35 -16 60 34 32 66 -14 16 -14 22 0
67 15 45 14 51 -2 78 -10 16 -24 51 -32 78 l-14 48 -29 -49 -29 -50 -22 70
c-13 39 -23 78 -23 88 -1 22 48 166 62 184 5 7 13 29 17 50 7 31 5 45 -17 85
-36 66 -53 79 -53 42 0 -16 -17 -57 -39 -92 l-39 -63 -24 73 c-23 68 -24 77
-11 118 7 25 15 75 18 112 3 61 2 69 -23 93 -14 15 -34 31 -43 36 -14 7 -16 5
-12 -11 3 -11 9 -23 14 -26 14 -8 -17 -34 -40 -34 -11 0 -25 9 -31 20 -12 23
-11 24 25 10 l26 -10 -18 31 c-28 49 -91 109 -113 109 -13 0 -24 -10 -31 -27z
m386 -953 c3 -5 1 -10 -4 -10 -6 0 -11 5 -11 10 0 6 2 10 4 10 3 0 8 -4 11
-10z m40 -30 c3 -5 1 -10 -4 -10 -6 0 -11 5 -11 10 0 6 2 10 4 10 3 0 8 -4 11
-10z m-322 -46 c-2 -7 0 -15 6 -19 14 -8 14 -35 1 -35 -5 0 -10 9 -10 19 0 11
-5 23 -10 26 -6 4 -8 11 -5 16 4 5 1 9 -5 9 -6 0 -8 4 -5 10 8 13 34 -11 28
-26z m-17 -32 c-2 -9 -10 -18 -19 -20 -18 -4 -23 13 -7 23 5 3 6 13 3 23 -6
14 -4 15 9 4 9 -7 15 -21 14 -30z"/>
<path d="M2257 3165 c-5 -22 -13 -48 -18 -59 -7 -13 -7 -16 0 -11 11 6 12 1
15 -85 1 -19 5 -59 10 -88 10 -63 19 -68 129 -79 39 -3 63 -9 53 -13 -9 -3
-16 -8 -14 -10 2 -3 -12 -20 -31 -37 -21 -21 -31 -38 -27 -48 3 -9 10 -13 16
-10 5 3 10 0 10 -7 0 -8 14 -22 31 -32 31 -18 31 -18 20 2 -6 12 -21 28 -32
36 l-22 15 34 39 c39 45 204 227 234 258 25 25 28 41 10 48 -9 3 -45 -29 -99
-86 l-85 -91 -103 7 c-56 4 -103 8 -104 9 -1 1 -6 65 -11 142 -7 111 -10 132
-16 100z"/>
<path d="M4005 3109 c-11 -17 -2 -18 19 -3 17 12 17 14 4 14 -9 0 -20 -5 -23
-11z"/>
<path d="M3501 3071 c-8 -5 -9 -11 -3 -15 6 -3 7 -19 2 -40 -4 -19 -4 -38 0
-43 34 -38 119 -373 126 -503 3 -52 10 -109 15 -127 7 -23 6 -48 -6 -91 -21
-82 -21 -82 28 -82 63 -1 161 -24 193 -47 16 -11 48 -30 72 -42 23 -12 42 -28
42 -35 0 -8 18 -61 40 -117 34 -88 40 -114 40 -179 0 -68 -2 -77 -25 -94 -13
-10 -32 -38 -41 -62 -14 -38 -21 -44 -45 -44 -15 0 -30 -4 -33 -9 -3 -5 -26
-5 -53 0 -49 10 -99 4 -120 -13 -7 -6 -22 1 -45 21 -32 28 -58 34 -74 18 -4
-4 -1 -7 8 -7 8 0 15 -7 15 -15 0 -21 -10 -19 -27 5 -8 11 -21 20 -30 20 -12
0 -12 -2 -1 -9 8 -5 9 -11 3 -15 -6 -3 -13 -2 -17 4 -9 15 -25 12 -25 -5 0 -8
-6 -15 -12 -15 -9 0 -8 -4 2 -11 12 -8 9 -10 -12 -6 -16 2 -28 0 -28 -4 0 -5
-8 -9 -18 -9 -15 0 -18 -6 -14 -30 3 -23 0 -30 -12 -30 -14 0 -15 4 -6 20 6
11 7 20 3 20 -5 0 -13 -10 -18 -22 -9 -20 -6 -25 15 -35 21 -9 17 -11 -35 -8
-51 3 -55 3 -27 -6 43 -13 41 -23 -2 -15 -28 5 -37 3 -45 -12 -6 -11 -7 -22
-3 -26 3 -4 -1 -4 -11 0 -21 8 -21 14 0 29 20 15 25 55 7 55 -8 0 -11 -6 -8
-15 4 -10 -4 -24 -22 -37 -29 -24 -64 -34 -64 -19 0 4 -14 7 -30 5 -28 -3 -30
-2 -20 16 6 11 7 20 2 20 -5 0 -14 -11 -20 -25 -12 -26 -35 -36 -26 -10 5 11
-1 15 -22 14 -17 -1 -22 -3 -11 -6 9 -2 17 -9 17 -15 0 -5 -7 -7 -16 -4 -9 3
-23 6 -31 6 -13 0 -13 3 -3 15 7 8 9 15 5 15 -4 0 -13 -7 -19 -15 -8 -11 -20
-12 -48 -6 -32 7 -39 5 -57 -15 -12 -13 -29 -24 -39 -24 -10 0 -24 -6 -31 -13
-10 -10 -11 -9 -6 6 4 9 17 17 29 18 19 1 19 2 -4 9 -23 7 -22 8 10 10 l35 2
-35 15 c-19 9 -30 18 -23 20 8 3 9 13 3 33 -4 16 -7 30 -7 32 1 2 -3 -2 -9 -9
-18 -21 -22 -15 -18 30 1 23 1 34 -2 25 -3 -10 -12 -18 -20 -18 -8 0 -12 -5
-9 -10 3 -6 -1 -10 -9 -10 -8 0 -18 -5 -22 -12 -5 -8 0 -9 17 -5 22 5 22 5 6
-7 -14 -11 -15 -15 -5 -19 7 -3 -1 -6 -19 -6 -17 -1 -35 -5 -38 -11 -3 -6 1
-7 9 -4 9 3 16 1 16 -5 0 -6 -9 -11 -20 -11 -11 0 -20 -5 -20 -11 0 -5 5 -7
12 -3 8 5 9 2 5 -10 -6 -14 -3 -17 10 -12 13 5 15 4 7 -3 -11 -12 -64 7 -64
22 0 4 -5 7 -12 7 -9 0 -9 -3 0 -12 17 -17 15 -26 -5 -31 -16 -4 29 -11 50 -8
4 0 7 -3 7 -8 0 -5 -15 -8 -32 -6 -44 4 -105 31 -87 37 8 3 11 9 6 13 -4 5
-13 3 -19 -3 -7 -7 -19 -12 -28 -12 -12 1 -12 3 3 11 9 6 15 15 12 20 -4 5
-10 7 -14 4 -5 -2 -7 16 -6 40 1 25 -2 45 -6 45 -5 0 -9 -9 -9 -20 0 -15 -7
-20 -26 -20 -14 0 -32 -6 -40 -14 -18 -19 -18 -30 1 -22 8 3 15 1 15 -4 0 -12
-23 -13 -34 -2 -10 9 -86 11 -81 1 5 -8 -56 -22 -63 -14 -7 7 64 35 90 35 21
1 22 2 6 14 -10 7 -18 22 -18 32 0 11 -4 15 -8 9 -10 -14 -35 -18 -27 -5 4 6
1 17 -5 25 -7 8 -9 15 -5 15 4 0 2 6 -4 14 -10 12 -5 15 29 21 22 4 38 11 34
16 -3 5 1 9 8 10 24 1 50 7 56 13 11 12 -25 5 -81 -14 -31 -11 -62 -20 -69
-19 -7 0 -1 5 13 10 25 9 48 49 28 49 -13 0 -5 63 9 68 6 2 12 -1 12 -7 0 -6
-4 -11 -10 -11 -6 0 -6 -9 0 -25 5 -14 7 -31 4 -39 -4 -11 0 -13 15 -9 21 5
30 23 12 23 -5 0 -11 9 -14 20 -6 22 9 28 16 8 2 -7 2 -4 0 7 -3 11 -5 28 -6
37 -1 9 -9 19 -19 21 -10 3 -16 1 -13 -3 3 -5 1 -11 -4 -14 -5 -4 -12 -2 -16
4 -3 5 -12 10 -18 10 -8 0 -9 -3 -1 -8 6 -4 10 -25 9 -47 0 -22 4 -43 9 -47 7
-5 3 -8 -8 -8 -12 0 -16 5 -13 14 3 8 0 20 -8 26 -8 6 -11 18 -8 26 3 8 0 14
-7 14 -10 0 -10 3 0 15 9 10 9 15 1 15 -6 0 -11 10 -11 22 0 21 1 21 14 3 13
-18 14 -18 37 1 13 10 25 28 27 39 2 15 -1 14 -13 -7 -18 -33 -45 -27 -45 9 0
13 -4 22 -10 18 -5 -3 -7 -12 -4 -19 3 -8 -5 -16 -20 -20 -31 -8 -33 -20 -5
-39 14 -10 17 -17 9 -22 -8 -5 -7 -13 4 -30 12 -19 13 -25 2 -34 -13 -11 -26
-5 -26 11 0 5 5 6 10 3 16 -10 12 5 -11 36 -11 16 -18 33 -14 38 3 5 0 13 -6
16 -5 4 -8 13 -5 20 3 8 -3 16 -12 18 -16 4 -15 5 1 6 9 0 17 6 17 12 0 5 5 7
10 4 6 -3 10 1 10 11 0 12 -3 14 -13 5 -10 -8 -17 -7 -27 2 -12 10 -12 9 -1
-5 17 -22 -3 -25 -25 -4 -18 19 -18 26 1 26 8 0 15 4 15 9 0 4 -11 6 -25 3
-23 -4 -37 -32 -16 -32 5 0 11 -7 15 -15 10 -27 -19 -16 -31 12 -17 35 -16 43
3 43 12 0 15 7 12 25 -3 14 -1 28 5 32 6 3 7 1 3 -5 -4 -7 -3 -12 3 -12 5 0 9
9 8 19 0 11 -5 17 -9 15 -4 -3 -8 2 -8 11 0 9 3 14 8 11 4 -2 16 2 27 10 22
16 16 18 -19 4 -18 -7 -26 -6 -26 1 0 7 -11 9 -25 7 -21 -4 -25 -1 -25 19 0
13 4 22 9 18 5 -3 12 -1 16 5 3 5 -2 10 -12 10 -20 0 -43 18 -43 34 0 5 3 7 6
3 9 -8 64 13 64 26 0 7 -4 7 -12 -1 -14 -14 -74 -16 -83 -3 -3 6 4 8 15 6 11
-2 20 0 20 6 0 5 -9 9 -20 9 -11 0 -20 5 -20 11 0 6 -7 9 -15 6 -8 -4 -17 -2
-20 2 -2 5 4 11 15 14 11 3 20 1 20 -4 0 -13 28 -11 36 3 4 6 3 8 -4 4 -6 -3
-13 -2 -17 4 -3 5 3 10 14 10 12 0 21 4 21 10 0 6 -9 6 -24 0 -21 -8 -24 -5
-29 18 -9 51 -2 75 23 79 13 2 26 6 29 9 3 3 -8 3 -24 0 -17 -2 -30 -5 -30 -6
0 -1 -13 -4 -30 -6 -23 -3 -26 -2 -15 6 13 8 13 10 -2 10 -9 0 -19 4 -22 8 -2
4 4 8 15 8 10 0 19 -4 19 -9 0 -5 10 -5 23 -2 39 12 37 20 -3 19 -31 -2 -41 2
-45 17 -4 11 -11 17 -16 14 -5 -4 -16 0 -24 9 -13 13 -13 15 6 21 13 4 25 2
29 -5 5 -9 9 -9 14 -1 4 6 12 9 17 6 5 -4 9 -1 9 5 0 7 -8 9 -20 5 -11 -4 -20
-2 -20 4 0 6 -6 10 -12 8 -8 -1 -13 7 -12 19 0 16 -4 21 -15 17 -12 -3 -11 0
3 11 10 8 24 17 30 20 17 7 -16 27 -36 22 -22 -5 -33 11 -19 27 7 10 5 13 -10
14 -10 1 -19 -5 -19 -13 0 -8 -4 -14 -10 -14 -5 0 -9 3 -9 8 4 25 -3 33 -23
28 -13 -3 -17 -3 -10 0 17 8 15 24 -6 47 -12 15 -14 21 -4 24 15 6 16 25 0 41
-9 9 -19 5 -45 -20 -30 -29 -33 -30 -33 -11 0 12 5 25 10 28 15 9 12 27 -2 20
-7 -4 -5 0 6 9 10 8 15 19 11 25 -3 6 -1 11 4 11 6 0 11 9 11 20 0 11 7 20 16
20 8 0 13 4 10 8 -7 11 56 72 92 89 27 13 27 13 -8 7 -19 -3 -46 -16 -60 -29
-14 -12 -36 -31 -49 -41 -45 -36 -62 -55 -56 -65 4 -5 3 -8 -2 -7 -4 2 -9 0
-10 -5 -2 -4 -12 -17 -24 -30 -12 -12 -35 -51 -52 -87 l-30 -65 7 -189 6 -189
77 -171 c42 -94 93 -196 114 -226 35 -53 82 -181 129 -355 12 -44 39 -134 61
-200 l40 -120 168 -130 c159 -122 171 -134 196 -190 27 -57 28 -70 35 -270 6
-195 5 -218 -17 -329 -13 -65 -23 -120 -23 -122 0 -2 339 -4 753 -4 l754 0 13
24 c8 16 18 23 29 19 13 -4 14 -3 2 5 -10 7 -12 14 -5 24 6 7 23 46 39 86 15
39 31 72 35 72 3 0 24 -13 46 -30 21 -16 45 -30 53 -30 8 0 2 -10 -14 -24 -16
-14 -34 -22 -39 -19 -6 3 -8 2 -4 -2 13 -13 -45 -44 -60 -32 -9 7 -11 6 -6 -7
4 -11 1 -16 -10 -16 -9 0 -16 -5 -16 -10 0 -11 48 10 92 42 27 19 68 17 68 -3
0 -5 0 -12 0 -16 0 -5 -6 -8 -12 -8 -7 -1 -12 -6 -11 -13 2 -6 -3 -9 -11 -6
-7 3 -19 -3 -27 -12 -12 -16 -12 -17 1 -9 13 8 13 7 1 -8 -14 -18 -36 -24 -26
-7 9 15 -1 12 -15 -4 -10 -13 30 -15 304 -16 l315 0 -14 42 c-7 24 -20 68 -28
98 l-14 55 -19 -42 c-19 -45 -31 -53 -40 -29 -7 17 20 72 41 83 13 8 11 25
-13 133 l-29 124 30 25 c29 24 30 31 14 97 -5 22 -124 274 -133 283 -3 3 -9 0
-13 -7 -5 -9 -19 10 -40 55 -31 64 -32 70 -22 122 9 45 7 70 -10 155 -11 55
-21 109 -22 119 -1 9 -5 17 -9 17 -4 0 -7 3 -7 8 3 17 -2 31 -14 44 -7 7 -22
30 -34 50 l-21 37 80 3 c44 2 89 0 99 -4 11 -5 144 -11 294 -15 l274 -6 64 42
c50 32 77 60 126 131 80 115 113 202 109 284 -2 41 -7 60 -15 59 -7 -2 -10 3
-7 10 2 7 -4 22 -16 32 -11 10 -20 15 -20 11 0 -3 -13 8 -28 25 -23 26 -34 31
-54 26 -14 -4 -29 -14 -32 -23 -4 -11 -2 -15 8 -11 15 6 16 -17 1 -30 -4 -4
-5 -2 0 6 6 10 4 12 -4 7 -9 -6 -9 -11 -1 -21 13 -16 4 -39 -11 -29 -5 3 -7 9
-4 14 3 5 1 11 -5 15 -6 3 -13 -1 -16 -9 -3 -9 -10 -13 -16 -10 -5 3 -7 12 -4
20 3 8 1 14 -5 14 -6 0 -8 4 -4 9 3 5 1 12 -4 16 -6 3 -8 -3 -6 -14 2 -13 -3
-21 -17 -24 -12 -3 -17 -10 -13 -17 4 -6 13 -9 21 -6 8 3 11 0 7 -9 -3 -8 -10
-12 -15 -9 -6 4 -15 0 -20 -7 -6 -10 -7 -7 -3 9 6 21 4 23 -15 17 -15 -5 -20
-4 -16 4 4 6 13 11 20 11 8 0 19 7 26 15 17 20 2 19 -44 -5 -22 -10 -43 -17
-49 -13 -5 3 -13 0 -17 -7 -5 -9 -9 -9 -14 -1 -4 6 -3 11 3 11 5 0 17 7 25 16
9 8 16 11 16 5 0 -13 27 -15 35 -2 3 5 0 13 -6 17 -8 4 -9 3 -5 -4 4 -7 2 -12
-3 -12 -6 0 -11 5 -11 10 0 14 -16 12 -32 -3 -17 -18 -44 -16 -87 6 -25 12
-37 14 -47 6 -7 -6 -18 -8 -24 -4 -5 3 -10 2 -10 -4 0 -6 -7 -7 -17 -4 -12 5
-14 3 -8 -8 7 -12 6 -12 -6 -1 -12 11 -11 15 5 27 18 14 18 14 -1 12 -20 -1
-52 -27 -33 -27 5 0 10 -5 10 -11 0 -6 -20 5 -44 24 -40 33 -56 38 -56 15 0
-5 4 -7 8 -4 4 2 14 0 22 -6 12 -8 12 -9 -2 -4 -10 3 -18 0 -18 -6 0 -6 -3 -9
-6 -5 -3 3 -16 -3 -27 -14 -12 -11 -23 -15 -25 -9 -2 6 5 18 15 28 10 9 14 14
8 10 -6 -4 -17 -3 -24 2 -8 4 -20 6 -27 3 -6 -2 -15 0 -19 6 -4 8 -12 8 -26 0
-12 -6 -23 -8 -27 -5 -3 3 0 6 6 6 7 0 12 4 12 9 0 11 -39 9 -58 -3 -7 -4 -12
-3 -12 2 0 5 10 14 23 20 20 10 20 11 -10 8 -25 -3 -30 0 -25 12 3 10 1 13 -7
8 -6 -4 -22 -1 -34 7 -18 12 -103 35 -144 39 -5 1 -12 7 -18 14 -9 12 -35 21
-69 23 -6 1 -6 4 0 10 5 5 46 6 99 0 314 -30 549 -44 566 -33 8 4 -3 20 -31
45 l-43 39 32 6 c20 4 28 10 20 14 -6 4 -25 4 -42 -1 -17 -5 -33 -6 -36 -4 -2
3 -1 5 4 5 4 0 2 7 -5 15 -10 12 -10 18 1 33 13 16 12 16 -7 -1 -13 -11 -28
-15 -40 -10 -15 5 -11 10 22 25 l39 18 -33 -5 c-23 -3 -34 0 -38 10 -4 8 -10
13 -15 10 -4 -3 -13 4 -19 15 -9 17 -13 18 -31 7 -16 -10 -21 -9 -28 1 -5 8
-23 12 -47 10 -32 -2 -39 0 -38 15 1 9 -2 17 -7 17 -5 0 -9 -7 -9 -16 0 -9 -7
-14 -16 -12 -8 2 -15 6 -15 11 1 4 1 21 1 37 0 17 5 30 11 30 5 0 7 -4 4 -10
-8 -12 13 -12 40 1 19 9 18 9 -2 5 -13 -2 -26 0 -29 5 -3 6 -22 8 -42 5 -21
-3 -32 -3 -26 0 15 6 5 45 -15 61 -9 7 -33 10 -53 8 -43 -5 -42 -6 -28 30 9
23 8 26 -6 21 -8 -3 -18 -6 -20 -6 -2 0 -4 -7 -4 -15 0 -8 -4 -15 -10 -15 -5
0 -7 7 -3 16 4 10 -1 17 -16 21 -12 3 -21 13 -21 25 0 15 -5 18 -20 13 -11 -4
-20 -2 -20 4 0 6 -7 11 -15 11 -8 0 -15 5 -15 10 0 6 11 8 26 4 24 -6 25 -5
15 15 -7 11 -17 21 -24 21 -8 0 -7 -4 3 -11 13 -9 13 -10 0 -6 -8 2 -23 0 -33
-5 -22 -11 -45 5 -59 41 -6 16 -12 21 -16 14 -4 -6 -20 -15 -36 -19 -21 -5
-27 -4 -22 5 4 6 11 9 15 7 4 -3 13 -1 20 3 9 6 5 13 -13 25 -14 9 -26 12 -26
6 0 -5 5 -10 11 -10 5 0 7 -4 4 -10 -11 -18 -25 -10 -25 15 0 14 -5 25 -11 25
-5 0 -8 -4 -5 -9 4 -5 -3 -7 -14 -4 -21 6 -46 40 -36 50 3 4 0 13 -7 21 -10
13 -9 14 2 7 11 -6 13 -3 8 14 -7 27 16 118 43 171 11 22 16 40 11 40 -5 0
-16 -17 -25 -37 -9 -21 -21 -46 -26 -55 -23 -42 -47 -118 -39 -124 5 -3 9 -22
8 -42 0 -31 -2 -34 -10 -17 -7 15 -8 13 -3 -10 4 -16 6 -72 5 -123 l-2 -93 77
-116 c75 -114 94 -155 94 -202 0 -13 7 -32 16 -42 15 -17 13 -17 -31 -3 -27 7
-55 20 -63 26 -13 11 -14 11 -7 -2 7 -12 6 -13 -7 -3 -8 7 -18 9 -23 5 -4 -4
-4 4 0 17 4 15 3 26 -5 31 -7 4 -13 19 -13 33 -1 14 -5 23 -8 21 -4 -2 -9 5
-12 16 -3 10 0 21 7 24 7 3 7 5 -2 5 -7 1 -10 6 -7 11 3 6 2 10 -3 10 -9 0
-17 19 -20 43 0 4 -8 19 -17 33 -9 13 -13 29 -10 34 3 6 1 10 -4 10 -6 0 -10
3 -10 8 1 4 0 10 -1 15 -1 4 -4 10 -5 15 -11 38 -29 72 -37 72 -5 0 -6 5 -3
10 3 6 1 10 -6 10 -7 0 -10 3 -6 6 9 9 -82 183 -122 234 -55 70 -93 110 -104
110 -5 0 -5 -6 2 -13 8 -10 7 -14 -3 -14 -9 0 -13 8 -10 24 3 18 -1 26 -21 33
-14 5 -25 14 -25 20 0 6 5 8 12 4 7 -4 8 -3 4 4 -8 14 -7 14 -25 3z m579 -355
c0 -3 -4 -8 -10 -11 -5 -3 -10 -1 -10 4 0 6 5 11 10 11 6 0 10 -2 10 -4z m130
-96 c0 -5 -7 -7 -15 -4 -8 4 -15 8 -15 10 0 2 7 4 15 4 8 0 15 -4 15 -10z
m-2355 -21 c-10 -15 -25 -10 -19 6 4 8 10 12 15 9 5 -3 7 -10 4 -15z m2515
-59 c0 -5 -2 -10 -4 -10 -3 0 -8 5 -11 10 -3 6 -1 10 4 10 6 0 11 -4 11 -10z
m-33 -16 c-3 -3 -12 -4 -19 -1 -8 3 -5 6 6 6 11 1 17 -2 13 -5z m47 -20 c10
-25 -1 -29 -14 -5 -6 12 -7 21 -1 21 5 0 12 -7 15 -16z m-37 0 c-3 -3 -12 -4
-19 -1 -8 3 -5 6 6 6 11 1 17 -2 13 -5z m90 -40 c-3 -3 -12 -4 -19 -1 -8 3 -5
6 6 6 11 1 17 -2 13 -5z m-2497 -19 c19 -23 8 -26 -19 -4 -16 13 -18 19 -8 19
8 0 20 -7 27 -15z m45 -5 c-3 -5 -12 -10 -18 -10 -7 0 -6 4 3 10 19 12 23 12
15 0z m2455 6 c0 -3 -4 -8 -10 -11 -5 -3 -10 -1 -10 4 0 6 5 11 10 11 6 0 10
-2 10 -4z m190 -86 c0 -5 -2 -10 -4 -10 -3 0 -8 5 -11 10 -3 6 -1 10 4 10 6 0
11 -4 11 -10z m-60 -14 c0 -3 -4 -8 -10 -11 -5 -3 -10 -1 -10 4 0 6 5 11 10
11 6 0 10 -2 10 -4z m82 -14 c-7 -2 -10 -8 -6 -13 3 -5 0 -9 -5 -9 -12 0 -15
23 -5 33 4 4 12 4 17 0 8 -5 7 -8 -1 -11z m-52 -12 c0 -5 -5 -10 -11 -10 -5 0
-7 5 -4 10 3 6 8 10 11 10 2 0 4 -4 4 -10z m95 -29 c3 -5 1 -12 -5 -16 -5 -3
-10 -2 -10 4 0 6 -8 8 -17 5 -15 -5 -16 -4 -3 5 19 13 27 14 35 2z m55 -66 c0
-8 -2 -15 -4 -15 -2 0 -6 7 -10 15 -3 8 -1 15 4 15 6 0 10 -7 10 -15z m-2680
-3 c0 -4 -9 -8 -20 -9 -11 -1 -18 2 -15 8 7 11 35 12 35 1z m-52 -27 c-3 -3
-9 2 -12 12 -6 14 -5 15 5 6 7 -7 10 -15 7 -18z m2129 9 c-3 -3 -12 -4 -19 -1
-8 3 -5 6 6 6 11 1 17 -2 13 -5z m-2084 -24 c3 -11 2 -20 -3 -20 -4 0 -10 9
-13 20 -3 11 -2 20 3 20 4 0 10 -9 13 -20z m-26 -16 c-3 -3 -12 -4 -19 -1 -8
3 -5 6 6 6 11 1 17 -2 13 -5z m2047 -88 c-10 -8 -21 -12 -24 -10 -5 6 21 24
34 24 6 0 1 -6 -10 -14z m16 -34 c0 -5 -7 -9 -15 -9 -8 0 -12 4 -9 9 3 4 9 8
15 8 5 0 9 -4 9 -8z m1165 -32 c13 -26 13 -29 0 -24 -8 3 -13 10 -10 14 3 5
-2 16 -11 24 -8 9 -11 16 -5 16 6 0 17 -13 26 -30z m-3167 -5 c-3 -3 -9 2 -12
12 -6 14 -5 15 5 6 7 -7 10 -15 7 -18z m2602 15 c0 -5 -8 -10 -17 -10 -15 0
-16 2 -3 10 19 12 20 12 20 0z m159 -11 c-22 -13 -31 -11 -17 5 7 8 17 12 22
9 4 -3 2 -9 -5 -14z m-740 -6 c-7 -10 -14 -19 -15 -21 -1 -2 -4 4 -8 13 -3 9
-2 13 3 10 5 -3 12 -1 16 5 3 5 9 10 12 10 3 0 -1 -8 -8 -17z m1115 9 c3 -5
-1 -9 -9 -9 -8 0 -12 4 -9 9 3 4 7 8 9 8 2 0 6 -4 9 -8z m-344 -27 c-7 -8 -16
-12 -21 -9 -13 8 -1 24 18 24 13 0 13 -3 3 -15z m-2766 -21 c10 -25 -1 -29
-14 -5 -6 12 -7 21 -1 21 5 0 12 -7 15 -16z m1995 -24 c11 -24 11 -24 -3 -6
-9 11 -16 24 -16 30 0 12 5 7 19 -24z m781 10 c0 -5 -2 -10 -4 -10 -3 0 -8 5
-11 10 -3 6 -1 10 4 10 6 0 11 -4 11 -10z m-2719 -7 c0 -5 2 -17 4 -28 4 -20
4 -20 -11 -1 -8 11 -14 23 -14 28 0 10 20 11 21 1z m-31 -13 c0 -5 -5 -10 -11
-10 -5 0 -7 5 -4 10 3 6 8 10 11 10 2 0 4 -4 4 -10z m20 -42 c10 -3 8 -6 -8
-10 -18 -5 -22 -2 -22 15 0 13 3 17 8 11 4 -6 14 -13 22 -16z m15 -28 c4 -6
-5 -10 -20 -10 -15 0 -24 4 -20 10 3 6 12 10 20 10 8 0 17 -4 20 -10z m-31
-39 c3 -5 -6 -11 -21 -14 -26 -5 -26 -4 -8 9 22 17 22 17 29 5z m71 -71 c3 -5
1 -10 -4 -10 -6 0 -11 5 -11 10 0 6 2 10 4 10 3 0 8 -4 11 -10z m15 -29 c0 -5
-7 -12 -16 -15 -14 -5 -15 -4 -4 9 14 17 20 19 20 6z m-45 -11 c3 -5 1 -10 -4
-10 -6 0 -11 5 -11 10 0 6 2 10 4 10 3 0 8 -4 11 -10z m49 -25 c-4 -8 1 -17
10 -21 20 -8 21 -24 2 -24 -14 0 -29 37 -20 52 9 14 14 9 8 -7z m109 -103 c8
-10 7 -13 -4 -12 -36 5 -43 1 -26 -18 10 -10 14 -22 10 -25 -3 -4 -1 -7 5 -7
7 0 12 -5 12 -11 0 -5 -4 -8 -9 -4 -5 3 -12 1 -16 -5 -3 -5 -16 -10 -28 -9
-21 1 -19 2 22 15 9 3 10 8 4 17 -5 6 -14 24 -20 38 -11 25 -10 26 9 21 16 -4
20 -2 15 10 -3 9 -3 19 1 23 4 3 8 0 11 -7 2 -7 8 -19 14 -26z m1322 -31 c3
-5 1 -12 -4 -15 -5 -3 -11 1 -15 9 -6 16 9 21 19 6z m-1410 -31 c3 -5 1 -10
-4 -10 -6 0 -11 5 -11 10 0 6 2 10 4 10 3 0 8 -4 11 -10z m1309 -5 c-4 -8 -10
-12 -15 -9 -14 8 -10 24 6 24 9 0 12 -6 9 -15z m213 9 c-3 -3 -12 -4 -19 -1
-8 3 -5 6 6 6 11 1 17 -2 13 -5z m33 -4 c0 -5 -5 -10 -11 -10 -5 0 -7 5 -4 10
3 6 8 10 11 10 2 0 4 -4 4 -10z m-1620 -20 c0 -5 -2 -10 -4 -10 -3 0 -8 5 -11
10 -3 6 -1 10 4 10 6 0 11 -4 11 -10z m54 -19 c3 -5 -1 -11 -9 -15 -9 -3 -15
0 -15 9 0 16 16 20 24 6z m116 -6 c0 -8 -2 -15 -4 -15 -2 0 -6 7 -10 15 -3 8
-1 15 4 15 6 0 10 -7 10 -15z m-35 -5 c8 -12 -12 -40 -28 -40 -6 0 -2 7 9 15
16 13 17 16 4 25 -9 6 -10 10 -3 10 6 0 15 -5 18 -10z m1178 -21 c7 -1 15 -1
18 -1 4 1 4 -9 1 -21 -5 -18 -7 -19 -10 -4 -2 9 -8 15 -13 12 -5 -4 -9 -2 -9
4 0 6 -7 8 -15 5 -18 -7 -19 2 -2 20 10 12 13 12 15 0 2 -8 9 -15 15 -15z m28
13 c-7 -2 -18 1 -23 6 -8 8 -4 9 13 5 13 -4 18 -8 10 -11z m-1267 -18 c9 -22
-3 -32 -14 -14 -12 19 -12 30 -1 30 5 0 12 -7 15 -16z m134 -5 c-2 -6 -8 -10
-13 -10 -5 0 -11 4 -13 10 -2 6 4 11 13 11 9 0 15 -5 13 -11z m459 -5 c-3 -3
-12 -4 -19 -1 -8 3 -5 6 6 6 11 1 17 -2 13 -5z m-503 -16 c-3 -4 -9 -8 -15 -8
-5 0 -9 4 -9 8 0 5 7 9 15 9 8 0 12 -4 9 -9z m197 1 c-16 -6 -28 -6 -35 1 -7
7 1 10 25 9 32 0 33 -1 10 -10z m-246 -19 c-3 -5 -10 -10 -16 -10 -5 0 -9 5
-9 10 0 6 7 10 16 10 8 0 12 -4 9 -10z m235 -9 c0 -6 -4 -12 -8 -15 -5 -3 -9
1 -9 9 0 8 4 15 9 15 4 0 8 -4 8 -9z m987 3 c-3 -3 -12 -4 -19 -1 -8 3 -5 6 6
6 11 1 17 -2 13 -5z m-677 -14 c0 -5 -5 -10 -11 -10 -5 0 -7 5 -4 10 3 6 8 10
11 10 2 0 4 -4 4 -10z m170 -22 c0 -5 5 -6 10 -3 13 8 50 -3 50 -15 0 -10 -67
-7 -77 4 -3 3 -13 6 -20 6 -24 0 -9 -23 15 -25 36 -3 45 -20 12 -20 -17 0 -30
4 -30 8 0 4 -8 3 -19 -2 -18 -10 -31 -6 -31 11 0 4 7 8 16 8 8 0 12 5 9 10
-13 22 3 37 34 32 17 -2 31 -9 31 -14z m350 7 c0 -8 -4 -15 -10 -15 -5 0 -7 7
-4 15 4 8 8 15 10 15 2 0 4 -7 4 -15z m113 8 c-7 -2 -19 -2 -25 0 -7 3 -2 5
12 5 14 0 19 -2 13 -5z m-1193 -7 c0 -2 -7 -7 -16 -10 -8 -3 -12 -2 -9 4 6 10
25 14 25 6z m914 -27 c-3 -6 -12 -5 -20 2 -12 10 -16 8 -21 -10 -4 -14 -9 -18
-17 -12 -6 5 -20 11 -31 14 -15 4 -13 5 8 6 16 1 27 7 27 15 0 12 6 13 30 5
16 -6 27 -15 24 -20z m-634 -1 c0 -13 -32 -6 -37 9 -3 7 3 9 16 6 12 -3 21
-10 21 -15z m860 13 c0 -6 -4 -13 -10 -16 -5 -3 -10 1 -10 9 0 9 5 16 10 16 6
0 10 -4 10 -9z m-805 -21 c16 -6 14 -8 -12 -7 -18 0 -30 4 -27 9 6 10 12 9 39
-2z m-238 -6 c-3 -3 -12 -4 -19 -1 -8 3 -5 6 6 6 11 1 17 -2 13 -5z m813 -4
c13 -8 13 -10 -2 -10 -9 0 -20 5 -23 10 -8 13 5 13 25 0z m-640 -15 c-7 -9
-15 -13 -19 -10 -3 3 1 10 9 15 21 14 24 12 10 -5z m140 -5 c0 -5 -5 -10 -11
-10 -5 0 -7 5 -4 10 3 6 8 10 11 10 2 0 4 -4 4 -10z m167 -6 c-3 -3 -12 -4
-19 -1 -8 3 -5 6 6 6 11 1 17 -2 13 -5z m50 -10 c-3 -3 -12 -4 -19 -1 -8 3 -5
6 6 6 11 1 17 -2 13 -5z m66 -11 c-7 -2 -21 -2 -30 0 -10 3 -4 5 12 5 17 0 24
-2 18 -5z m1360 -343 c-3 -11 -9 -17 -14 -14 -14 8 -10 34 5 34 9 0 12 -7 9
-20z m-113 -793 c0 -2 -12 -14 -27 -28 l-28 -24 24 28 c23 25 31 32 31 24z"/>
<path d="M2037 2843 c18 -2 50 -2 70 0 21 2 7 4 -32 4 -38 0 -55 -2 -38 -4z"/>
<path d="M3970 2817 c0 -10 8 -17 18 -17 9 0 13 4 7 8 -5 4 -13 11 -17 16 -5
5 -8 2 -8 -7z"/>
<path d="M4100 2744 c0 -10 7 -14 22 -12 11 2 23 -2 25 -9 3 -7 -4 -10 -19 -7
-13 2 -17 2 -10 -2 6 -3 10 -10 6 -15 -9 -15 14 -10 31 7 15 16 14 18 -12 35
-34 23 -43 24 -43 3z"/>
<path d="M3501 2558 c-9 -53 -8 -72 3 -99 8 -19 17 -55 21 -82 4 -26 11 -49
15 -52 5 -3 15 16 23 42 30 92 29 103 -12 182 l-38 75 -12 -66z"/>
<path d="M4340 2585 c0 -8 4 -15 10 -15 5 0 7 7 4 15 -4 8 -8 15 -10 15 -2 0
-4 -7 -4 -15z"/>
<path d="M1871 2576 c-9 -10 -8 -15 4 -20 8 -3 15 -10 15 -16 0 -17 23 -37 37
-33 7 3 -1 16 -18 33 -19 18 -25 30 -17 32 8 3 9 6 1 11 -6 4 -16 1 -22 -7z"/>
<path d="M2650 2576 c0 -2 9 -6 20 -9 11 -3 18 -1 14 4 -5 9 -34 13 -34 5z"/>
<path d="M1916 2561 c-3 -5 5 -11 19 -13 30 -6 32 -2 6 12 -11 6 -22 6 -25 1z"/>
<path d="M2677 2510 c4 -16 2 -19 -13 -15 -15 5 -14 3 4 -11 12 -9 22 -24 23
-33 0 -10 3 -8 10 7 5 13 13 21 19 17 5 -3 7 0 4 9 -4 9 2 16 18 19 18 3 16 5
-9 6 -25 1 -31 -2 -27 -14 4 -8 1 -15 -5 -15 -15 0 -14 37 2 43 6 3 2 6 -10 6
-16 1 -20 -3 -16 -19z"/>
<path d="M2900 2485 c0 -16 22 -35 40 -34 13 0 13 1 0 6 -8 4 -20 13 -27 22
-7 9 -13 11 -13 6z"/>
<path d="M2630 2460 c0 -5 6 -7 14 -4 9 3 16 -2 18 -13 3 -15 5 -15 10 5 5 18
2 22 -18 22 -13 0 -24 -4 -24 -10z"/>
<path d="M2714 2434 c4 -11 -1 -18 -14 -21 -11 -3 -20 -9 -20 -13 0 -5 13 -5
30 0 28 8 54 -3 28 -13 -7 -2 -10 -7 -6 -11 3 -4 16 -2 29 4 19 11 21 10 16
-3 -3 -9 -1 -18 6 -21 7 -3 -1 -3 -18 1 -49 9 -50 9 -50 -12 0 -15 6 -20 25
-18 l25 2 -23 -11 c-13 -6 -21 -17 -18 -25 3 -7 -1 -13 -8 -13 -13 0 -26 20
-25 36 0 4 -4 10 -9 13 -5 3 -17 20 -26 36 -14 24 -16 25 -13 8 3 -13 1 -23
-4 -23 -5 0 -9 7 -9 15 0 8 -5 15 -12 15 -6 0 -8 -3 -5 -7 4 -3 2 -12 -3 -18
-7 -9 -6 -16 5 -25 8 -7 15 -8 15 -3 0 5 6 10 13 10 8 0 14 -6 14 -13 0 -7 -7
-10 -15 -7 -11 5 -13 1 -7 -15 5 -17 2 -22 -12 -21 -10 0 -13 3 -5 6 13 5 7
23 -8 23 -18 0 -2 -36 21 -47 13 -7 18 -13 11 -13 -10 0 -10 -5 2 -21 8 -12
12 -27 9 -35 -3 -8 2 -17 11 -20 9 -3 13 -10 11 -15 -3 -4 3 -17 13 -27 10
-10 16 -24 14 -30 -2 -7 6 -13 20 -13 17 -1 18 -3 6 -6 -21 -5 -23 -19 -6 -29
7 -4 8 -3 4 4 -10 17 -1 15 14 -4 8 -8 9 -14 4 -13 -5 1 -18 0 -29 -1 -16 -1
-15 -4 10 -15 19 -9 24 -14 13 -15 -16 0 -16 -2 3 -21 21 -21 21 -46 0 -41 -7
1 -9 -3 -6 -9 4 -6 18 -9 32 -6 23 4 23 3 7 -14 -10 -11 -14 -22 -11 -26 4 -3
7 -2 7 3 0 12 45 12 57 0 4 -5 3 -6 -4 -3 -15 9 -45 -2 -37 -14 3 -5 10 -6 16
-3 6 4 5 -3 -2 -16 -9 -17 -9 -25 1 -34 9 -8 10 -8 4 4 -6 12 -5 13 5 3 12
-11 11 -16 -6 -28 -18 -15 -17 -15 11 -10 l30 5 -28 -11 c-15 -6 -24 -15 -21
-20 4 -6 10 -6 18 0 8 7 12 5 12 -8 0 -10 -5 -17 -11 -15 -5 2 -10 -7 -10 -20
0 -23 1 -24 20 -8 19 16 19 16 5 -2 -13 -17 -12 -21 15 -43 21 -18 24 -22 8
-14 -15 8 -23 8 -23 1 0 -16 -28 -12 -32 5 -2 13 -6 12 -16 -5 -7 -11 -9 -20
-5 -19 5 1 22 1 38 -1 22 -1 25 -3 13 -8 -13 -5 -15 -11 -8 -22 9 -13 10 -13
10 0 1 8 5 5 11 -8 5 -13 13 -20 19 -17 5 3 10 1 10 -5 0 -10 46 -7 57 4 2 2
0 30 -6 61 -9 47 -8 60 5 80 17 27 11 85 -9 85 -7 0 -17 12 -24 26 -11 24 -10
29 12 46 27 21 32 43 13 51 -7 3 1 6 17 6 23 1 26 -2 15 -9 -9 -6 -10 -10 -3
-10 21 0 43 12 37 21 -3 5 1 6 9 3 8 -3 18 -1 22 5 3 6 -2 11 -12 11 -10 0
-26 12 -36 26 -21 29 -12 48 33 67 l25 11 -27 4 c-16 2 -28 7 -28 12 0 5 7 7
15 4 11 -5 13 -2 9 10 -3 9 -1 16 5 16 6 0 11 -7 11 -17 0 -22 13 -8 17 18 2
15 -1 20 -11 16 -8 -3 -20 1 -26 8 -10 12 -9 16 4 21 23 9 15 37 -14 50 l-25
10 33 12 c34 12 45 23 14 15 -16 -4 -18 0 -14 26 2 18 0 31 -6 31 -6 0 -19 3
-29 7 -14 5 -13 2 5 -14 28 -26 28 -33 -1 -33 -13 0 -28 -5 -34 -11 -8 -8 -16
-8 -30 0 -10 6 -13 11 -5 11 7 0 11 4 8 9 -3 5 -16 7 -28 3 -18 -4 -20 -2 -16
16 4 14 1 22 -11 25 -14 4 -14 5 2 6 9 0 17 5 17 10 0 6 -12 6 -30 1 -18 -5
-30 -5 -30 1 0 5 6 9 14 9 8 0 17 4 20 9 4 5 -3 7 -14 4 -16 -4 -20 -1 -19 18
0 22 1 23 9 4 8 -19 9 -19 9 2 1 19 -3 21 -29 18 -29 -3 -40 7 -20 20 6 3 10
12 9 18 0 9 -2 9 -6 0 -7 -18 -32 -16 -39 2 -4 8 -11 15 -16 15 -6 0 -7 -7 -4
-16z m63 -116 c-3 -8 -6 -5 -6 6 -1 11 2 17 5 13 3 -3 4 -12 1 -19z m56 -38
c3 -11 1 -20 -4 -20 -5 0 -9 9 -9 20 0 11 2 20 4 20 2 0 6 -9 9 -20z m-68 -51
c-2 -16 -1 -29 3 -29 4 0 8 -12 9 -27 l2 -28 -16 30 c-9 17 -22 35 -28 40 -16
13 -26 55 -14 55 8 0 13 -15 10 -32 0 -5 5 -8 12 -8 8 0 14 7 14 15 0 8 -4 15
-9 15 -4 0 -8 5 -8 11 0 8 4 8 14 0 9 -7 13 -24 11 -42z m196 7 c-6 -6 -8 -23
-5 -37 5 -23 5 -23 -11 4 -18 30 -31 38 -15 8 13 -25 13 -31 0 -31 -5 0 -9 3
-9 8 4 24 -4 32 -33 32 -25 0 -29 3 -18 10 8 5 22 7 32 4 9 -2 19 -1 21 3 3 5
15 9 27 10 16 1 19 -1 11 -11z m29 -51 c10 -12 10 -15 -4 -15 -9 0 -16 7 -16
15 0 8 2 15 4 15 2 0 9 -7 16 -15z m-55 -25 c-3 -5 -14 -10 -23 -10 -15 0 -15
2 -2 10 20 13 33 13 25 0z m-105 -20 c0 -5 -5 -10 -11 -10 -5 0 -7 5 -4 10 3
6 8 10 11 10 2 0 4 -4 4 -10z m30 0 c0 -5 -5 -10 -11 -10 -5 0 -7 5 -4 10 3 6
8 10 11 10 2 0 4 -4 4 -10z m117 -25 c-10 -11 -13 -10 -18 4 -9 23 0 34 16 21
11 -9 12 -15 2 -25z m-167 0 c19 -36 8 -40 -12 -4 -9 16 -14 29 -9 29 4 0 14
-11 21 -25z m70 -36 c0 -6 -4 -7 -10 -4 -5 3 -10 11 -10 16 0 6 5 7 10 4 6 -3
10 -11 10 -16z m-12 -25 c6 3 13 2 17 -4 4 -6 -5 -10 -19 -10 -18 0 -26 5 -26
18 0 13 2 14 9 3 5 -7 13 -11 19 -7z m47 -23 c-11 -10 -32 -15 -55 -11 -8 2 1
6 20 10 19 4 37 8 40 9 2 0 0 -3 -5 -8z m-15 -46 c0 -8 -2 -15 -4 -15 -2 0 -6
7 -10 15 -3 8 -1 15 4 15 6 0 10 -7 10 -15z m58 -20 c-3 -3 -18 -8 -34 -11
-22 -3 -25 -2 -14 6 15 10 58 14 48 5z m-88 -229 c0 -3 -4 -8 -10 -11 -5 -3
-10 -1 -10 4 0 6 5 11 10 11 6 0 10 -2 10 -4z"/>
<path d="M4498 2443 c7 -3 16 -2 19 1 4 3 -2 6 -13 5 -11 0 -14 -3 -6 -6z"/>
<path d="M2910 2426 c0 -2 7 -7 16 -10 8 -3 12 -2 9 4 -6 10 -25 14 -25 6z"/>
<path d="M2960 2400 c0 -5 5 -10 11 -10 5 0 7 5 4 10 -3 6 -8 10 -11 10 -2 0
-4 -4 -4 -10z"/>
<path d="M4660 2400 c0 -5 5 -10 11 -10 5 0 7 5 4 10 -3 6 -8 10 -11 10 -2 0
-4 -4 -4 -10z"/>
<path d="M2970 2370 c0 -5 -7 -10 -16 -10 -8 0 -12 -5 -9 -10 4 -6 11 -8 16
-4 6 3 13 -3 16 -15 6 -23 9 -24 38 -10 19 9 18 9 -2 5 -15 -3 -23 1 -23 10 0
8 -4 14 -10 14 -5 0 -7 7 -4 15 4 8 3 15 0 15 -3 0 -6 -4 -6 -10z"/>
<path d="M4685 2360 c3 -5 8 -10 11 -10 2 0 4 5 4 10 0 6 -5 10 -11 10 -5 0
-7 -4 -4 -10z"/>
<path d="M4015 2350 c3 -5 8 -10 11 -10 2 0 4 5 4 10 0 6 -5 10 -11 10 -5 0
-7 -4 -4 -10z"/>
<path d="M1985 2330 c3 -5 8 -10 11 -10 2 0 4 5 4 10 0 6 -5 10 -11 10 -5 0
-7 -4 -4 -10z"/>
<path d="M2048 2323 c7 -3 16 -2 19 1 4 3 -2 6 -13 5 -11 0 -14 -3 -6 -6z"/>
<path d="M2898 2323 c6 -2 18 -2 25 0 6 3 1 5 -13 5 -14 0 -19 -2 -12 -5z"/>
<path d="M4015 2320 c3 -5 10 -10 16 -10 5 0 9 5 9 10 0 6 -7 10 -16 10 -8 0
-12 -4 -9 -10z"/>
<path d="M2055 2300 c-3 -5 1 -10 10 -10 9 0 13 5 10 10 -3 6 -8 10 -10 10 -2
0 -7 -4 -10 -10z"/>
<path d="M4025 2290 c-3 -5 -1 -10 4 -10 6 0 11 5 11 10 0 6 -2 10 -4 10 -3 0
-8 -4 -11 -10z"/>
<path d="M2935 2280 c-3 -5 -1 -10 4 -10 6 0 11 5 11 10 0 6 -2 10 -4 10 -3 0
-8 -4 -11 -10z"/>
<path d="M3980 2270 c-12 -7 -10 -9 7 -7 12 0 19 5 17 9 -6 10 -6 10 -24 -2z"/>
<path d="M4035 2260 c-3 -5 -1 -10 4 -10 6 0 11 5 11 10 0 6 -2 10 -4 10 -3 0
-8 -4 -11 -10z"/>
<path d="M3030 2253 c0 -5 5 -15 10 -23 7 -12 9 -10 7 8 -1 19 -17 33 -17 15z"/>
<path d="M4846 2239 c20 -23 9 -26 -12 -4 -19 19 -41 19 -41 1 0 -8 6 -12 14
-9 7 3 13 -1 13 -8 1 -26 40 -61 88 -79 39 -15 53 -16 72 -7 28 14 35 46 12
53 -9 3 -25 10 -34 15 -10 5 -26 9 -35 9 -15 0 -16 -2 -3 -10 8 -5 10 -10 4
-10 -6 0 -17 7 -24 15 -10 12 -9 15 6 16 18 0 18 1 -1 8 -11 5 -24 6 -30 3 -5
-3 -5 1 2 9 9 11 6 14 -18 15 -28 1 -29 0 -13 -17z m31 -35 c-3 -3 -12 -4 -19
-1 -8 3 -5 6 6 6 11 1 17 -2 13 -5z"/>
<path d="M2100 2230 c-13 -8 -12 -10 3 -10 9 0 17 5 17 10 0 12 -1 12 -20 0z"/>
<path d="M4930 2230 c0 -6 7 -10 15 -10 8 0 15 2 15 4 0 2 -7 6 -15 10 -8 3
-15 1 -15 -4z"/>
<path d="M5020 2186 c0 -2 7 -7 16 -10 8 -3 12 -2 9 4 -6 10 -25 14 -25 6z"/>
<path d="M5025 2110 c27 -12 43 -12 25 0 -8 5 -22 9 -30 9 -10 0 -8 -3 5 -9z"/>
<path d="M5070 2090 c0 -5 7 -7 15 -4 8 4 15 8 15 10 0 2 -7 4 -15 4 -8 0 -15
-4 -15 -10z"/>
<path d="M5111 2086 c-12 -14 -12 -16 4 -10 14 6 16 4 10 -6 -6 -10 -4 -12 8
-7 9 3 17 2 19 -3 2 -4 10 -1 18 8 13 14 12 15 -3 9 -9 -3 -17 -2 -17 4 0 6
-4 8 -9 5 -5 -4 -11 -1 -13 5 -2 7 -9 5 -17 -5z"/>
<path d="M3586 2082 c14 -13 115 -54 120 -49 10 9 -74 57 -101 57 -16 0 -25
-4 -19 -8z"/>
<path d="M2194 2035 c8 -8 18 -15 22 -15 3 0 1 7 -6 15 -7 8 -17 15 -22 15 -5
0 -3 -7 6 -15z"/>
<path d="M2140 2030 c-9 -6 -10 -10 -3 -10 6 0 15 5 18 10 8 12 4 12 -15 0z"/>
<path d="M2191 2003 c0 -7 -7 -13 -15 -13 -8 0 -18 -5 -22 -11 -4 -6 1 -9 12
-8 11 2 24 0 31 -4 6 -4 15 -2 19 4 4 7 3 9 -4 5 -6 -3 -12 3 -15 16 -2 13 -5
17 -6 11z"/>
<path d="M2215 2000 c-3 -5 -1 -10 4 -10 6 0 11 5 11 10 0 6 -2 10 -4 10 -3 0
-8 -4 -11 -10z"/>
<path d="M2286 1941 c-4 -5 -2 -12 3 -15 5 -4 12 -2 15 3 4 5 2 12 -3 15 -5 4
-12 2 -15 -3z"/>
<path d="M2675 1940 c3 -5 8 -10 11 -10 2 0 4 5 4 10 0 6 -5 10 -11 10 -5 0
-7 -4 -4 -10z"/>
<path d="M2320 1927 c0 -9 40 -35 44 -28 3 4 -6 13 -19 19 -14 7 -25 10 -25 9z"/>
<path d="M2260 1906 c0 -2 8 -10 18 -17 15 -13 16 -12 3 4 -13 16 -21 21 -21
13z"/>
<path d="M2655 1890 c-3 -5 -2 -10 4 -10 5 0 13 5 16 10 3 6 2 10 -4 10 -5 0
-13 -4 -16 -10z"/>
<path d="M2233 1870 c-13 -5 -23 -12 -23 -15 0 -9 16 -5 36 10 22 16 19 18
-13 5z"/>
<path d="M2755 1830 c3 -5 8 -10 11 -10 2 0 4 5 4 10 0 6 -5 10 -11 10 -5 0
-7 -4 -4 -10z"/>
<path d="M2309 1803 c-13 -16 -12 -17 4 -4 9 7 17 15 17 17 0 8 -8 3 -21 -13z"/>
<path d="M2286 1771 c-12 -5 -15 -10 -9 -14 6 -4 16 0 23 8 14 17 13 17 -14 6z"/>
<path d="M2355 1770 c-3 -5 1 -10 9 -10 9 0 16 5 16 10 0 6 -4 10 -9 10 -6 0
-13 -4 -16 -10z"/>
<path d="M2698 1763 c7 -3 16 -2 19 1 4 3 -2 6 -13 5 -11 0 -14 -3 -6 -6z"/>
<path d="M2676 1737 c3 -10 9 -15 12 -12 3 3 0 11 -7 18 -10 9 -11 8 -5 -6z"/>
<path d="M2705 1740 c-3 -5 -1 -10 4 -10 6 0 11 5 11 10 0 6 -2 10 -4 10 -3 0
-8 -4 -11 -10z"/>
<path d="M2750 1685 c0 -8 -5 -15 -12 -15 -6 0 -9 -2 -6 -5 3 -3 14 -2 25 2
18 7 19 10 7 21 -12 11 -14 10 -14 -3z"/>
<path d="M2610 1675 c-7 -9 -8 -15 -2 -15 5 0 12 7 16 15 3 8 4 15 2 15 -2 0
-9 -7 -16 -15z"/>
<path d="M2690 1661 c0 -6 4 -13 10 -16 6 -3 7 1 4 9 -7 18 -14 21 -14 7z"/>
<path d="M2528 1643 c7 -3 16 -2 19 1 4 3 -2 6 -13 5 -11 0 -14 -3 -6 -6z"/>
<path d="M2467 1616 c-5 -12 0 -13 26 -4 44 15 45 18 10 18 -18 0 -33 -6 -36
-14z"/>
<path d="M2588 1623 c6 -2 18 -2 25 0 6 3 1 5 -13 5 -14 0 -19 -2 -12 -5z"/>
<path d="M2520 1600 c-8 -5 -10 -10 -5 -10 6 0 17 5 25 10 8 5 11 10 5 10 -5
0 -17 -5 -25 -10z"/>
<path d="M2950 1601 c0 -5 9 -7 20 -4 11 3 20 7 20 9 0 2 -9 4 -20 4 -11 0
-20 -4 -20 -9z"/>
<path d="M2583 1590 c-13 -5 -23 -11 -23 -14 0 -8 30 0 42 12 14 14 11 14 -19
2z"/>
<path d="M2436 1541 c-11 -4 -15 -10 -9 -14 5 -3 19 0 29 8 20 15 11 18 -20 6z"/>
<path d="M2505 1530 c3 -5 8 -10 11 -10 2 0 4 5 4 10 0 6 -5 10 -11 10 -5 0
-7 -4 -4 -10z"/>
<path d="M2395 1521 c-3 -5 -2 -12 3 -15 5 -3 9 1 9 9 0 17 -3 19 -12 6z"/>
<path d="M2443 1516 c-31 -15 -29 -28 2 -20 15 4 25 2 25 -5 0 -6 -9 -11 -20
-11 -11 0 -20 -4 -20 -10 0 -13 6 -13 31 1 12 6 18 17 15 25 -3 8 -1 14 5 14
6 0 7 5 4 10 -7 12 -12 11 -42 -4z"/>
<path d="M3335 1460 c-3 -5 1 -10 10 -10 9 0 13 5 10 10 -3 6 -8 10 -10 10 -2
0 -7 -4 -10 -10z"/>
<path d="M2490 1449 c0 -5 5 -7 10 -4 6 3 10 8 10 11 0 2 -4 4 -10 4 -5 0 -10
-5 -10 -11z"/>
<path d="M2450 1446 c0 -2 7 -7 16 -10 8 -3 12 -2 9 4 -6 10 -25 14 -25 6z"/>
<path d="M3205 1405 c0 -17 4 -24 13 -20 8 3 18 5 24 5 6 0 1 9 -12 20 -13 11
-23 20 -24 20 -1 0 -1 -11 -1 -25z"/>
<path d="M3088 1413 c7 -3 16 -2 19 1 4 3 -2 6 -13 5 -11 0 -14 -3 -6 -6z"/>
<path d="M3260 1387 c0 -11 1 -18 3 -16 1 2 8 11 15 20 9 13 9 16 -3 16 -8 0
-15 -9 -15 -20z"/>
</g>
</svg>
