<?xml version="1.0" standalone="no"?>
<!DOCTYPE svg PUBLIC "-//W3C//DTD SVG 20010904//EN"
 "http://www.w3.org/TR/2001/REC-SVG-20010904/DTD/svg10.dtd">
<svg version="1.0" xmlns="http://www.w3.org/2000/svg"
 width="500.000000pt" height="500.000000pt" viewBox="0 0 500.000000 500.000000"
 preserveAspectRatio="xMidYMid meet">

<g transform="translate(0.000000,500.000000) scale(0.100000,-0.100000)"
fill="#000000" stroke="none">
<path d="M3183 3258 l-83 -71 20 -31 c10 -17 23 -30 27 -29 21 5 193 108 193
116 0 10 -61 87 -69 87 -3 0 -43 -33 -88 -72z"/>
<path d="M1171 3008 c-24 -145 -49 -275 -57 -290 -32 -62 -116 -80 -153 -32
-12 15 -21 35 -21 45 0 17 -8 19 -70 19 l-70 0 0 -47 c0 -62 27 -106 82 -134
50 -26 140 -30 211 -10 60 17 139 86 161 141 9 22 34 149 56 282 22 134 42
253 45 266 5 21 3 22 -68 22 l-72 0 -44 -262z"/>
<path d="M1510 3070 c-124 -58 -184 -184 -147 -311 21 -71 64 -121 134 -155
211 -104 434 95 357 319 -18 54 -74 115 -129 142 -60 29 -159 31 -215 5z m208
-43 c136 -67 158 -263 41 -361 -114 -96 -285 -63 -348 67 -26 53 -28 144 -5
190 61 122 191 165 312 104z"/>
<path d="M1515 2900 l-69 -70 64 -65 c35 -36 68 -65 72 -65 4 0 8 10 8 23 0
14 -18 40 -45 67 l-45 44 46 47 c32 32 45 53 42 68 -3 19 -12 13 -73 -49z"/>
<path d="M1640 2945 c0 -21 12 -41 42 -72 l42 -43 -42 -43 c-26 -27 -42 -52
-42 -67 0 -22 7 -17 65 40 36 35 65 69 65 75 0 6 -29 40 -65 75 -64 63 -65 64
-65 35z"/>
<path d="M2022 3047 c-76 -24 -117 -102 -88 -170 16 -39 49 -65 124 -97 47
-20 53 -26 50 -49 -4 -37 -54 -41 -113 -8 l-44 25 -27 -46 c-33 -56 -26 -70
42 -94 104 -36 239 -12 281 51 16 24 23 49 23 82 0 65 -32 100 -125 138 -59
24 -70 32 -70 52 0 20 6 25 31 27 17 2 49 -3 71 -11 l41 -14 21 44 c12 24 19
48 16 52 -16 27 -169 39 -233 18z"/>
<path d="M3050 3040 c-94 -44 -143 -118 -143 -215 0 -166 161 -272 336 -221
53 15 127 70 127 94 0 5 -21 20 -47 32 l-46 22 -38 -21 c-55 -31 -113 -28
-150 8 -16 16 -29 39 -29 50 0 20 5 21 166 21 l166 0 -6 48 c-18 124 -92 192
-219 199 -58 3 -81 0 -117 -17z m137 -80 c29 -10 63 -54 51 -65 -3 -3 -44 -5
-91 -3 l-86 3 12 25 c12 24 50 50 73 50 6 0 25 -5 41 -10z"/>
<path d="M2352 2883 c4 -193 13 -221 86 -261 81 -45 255 -40 324 10 56 39 68
84 68 261 l0 157 -74 0 -75 0 -3 -151 c-3 -145 -4 -152 -27 -170 -45 -36 -122
-18 -141 34 -5 16 -10 88 -10 158 l0 129 -76 0 -76 0 4 -167z"/>
<path d="M1062 2351 c-98 -34 -160 -105 -169 -194 -8 -81 43 -126 187 -166 40
-11 83 -27 96 -36 35 -23 32 -67 -7 -99 -63 -53 -199 -26 -199 40 0 24 -2 25
-67 22 -67 -3 -68 -3 -71 -33 -4 -49 36 -116 88 -145 39 -22 57 -25 141 -25
86 0 101 3 154 30 79 41 117 94 122 172 7 98 -37 142 -177 178 -112 29 -139
51 -120 100 14 37 56 59 111 59 53 0 83 -19 93 -60 6 -22 11 -24 66 -24 32 0
62 5 65 10 13 22 -8 92 -37 126 -54 61 -173 81 -276 45z"/>
<path d="M2587 2313 c-3 -4 -8 -32 -12 -60 -7 -52 -8 -53 -40 -53 -28 0 -33
-4 -39 -31 -12 -60 -8 -69 24 -69 17 0 30 -2 30 -4 0 -2 -9 -57 -20 -121 -27
-157 -26 -196 3 -223 33 -31 83 -44 140 -36 l47 6 0 49 c0 47 -1 49 -29 49
-50 0 -52 14 -29 153 l21 127 43 0 c49 0 49 0 59 58 l7 42 -46 0 -46 0 6 43
c12 75 15 72 -53 75 -34 2 -63 -1 -66 -5z"/>
<path d="M1564 2196 c-52 -17 -82 -37 -105 -73 -34 -51 -27 -63 41 -63 39 0
62 5 67 14 33 55 143 40 143 -20 0 -30 -21 -40 -118 -54 -125 -18 -172 -57
-172 -142 0 -66 22 -105 73 -129 73 -33 146 -22 200 29 l27 26 0 -32 0 -32 65
0 65 0 0 158 c-1 166 -10 235 -38 265 -48 53 -170 79 -248 53z m146 -299 c0
-49 -25 -81 -73 -92 -34 -9 -84 11 -92 37 -8 25 19 66 48 73 47 11 102 23 110
24 4 1 7 -18 7 -42z"/>
<path d="M2165 2195 c-22 -8 -50 -27 -62 -42 l-23 -28 0 38 0 37 -65 0 -65 0
0 -240 0 -240 65 0 65 0 0 150 c0 173 8 201 65 220 27 9 40 9 62 -2 46 -22 53
-49 53 -215 l0 -153 65 0 65 0 0 178 c0 165 -2 181 -22 222 -37 73 -123 105
-203 75z"/>
<path d="M2970 2197 c-55 -15 -87 -37 -111 -74 -34 -51 -27 -63 41 -63 39 0
62 5 67 14 33 55 143 40 143 -20 0 -30 -21 -40 -118 -54 -125 -18 -172 -57
-172 -142 0 -66 22 -105 73 -129 73 -33 146 -22 200 29 l27 26 0 -32 0 -32 66
0 66 0 -4 183 c-3 162 -5 186 -24 217 -40 69 -157 104 -254 77z m140 -300 c0
-49 -25 -80 -74 -91 -67 -16 -121 43 -78 86 16 16 87 39 145 47 4 1 7 -18 7
-42z"/>
<path d="M3573 2199 c-17 -5 -45 -23 -62 -40 l-31 -31 0 36 0 36 -65 0 -65 0
0 -240 0 -240 65 0 65 0 0 150 c0 173 8 201 65 220 27 9 40 9 62 -2 46 -22 53
-49 53 -215 l0 -153 65 0 65 0 0 178 c0 165 -2 181 -22 222 -13 25 -37 52 -53
62 -39 22 -101 30 -142 17z"/>
<path d="M4068 2200 c-54 -14 -112 -53 -137 -93 -11 -19 -21 -37 -21 -41 0 -3
25 -6 55 -6 41 0 63 6 91 25 49 33 98 33 119 1 13 -19 14 -29 5 -45 -12 -23
-20 -25 -128 -41 -125 -18 -182 -62 -197 -151 -16 -95 80 -160 191 -130 23 6
53 22 68 36 15 14 28 25 30 25 1 0 1 -14 -2 -31 l-4 -30 63 3 64 3 30 183 29
183 -19 37 c-12 21 -35 44 -55 54 -44 21 -133 30 -182 18z m96 -287 c-13 -52
-35 -85 -69 -99 -46 -19 -68 -18 -95 4 -28 23 -22 65 13 84 17 9 106 31 150
37 4 1 4 -11 1 -26z"/>
</g>
</svg>
